<svg width="3463" height="3463" viewBox="0 0 3463 3463" fill="none" xmlns="http://www.w3.org/2000/svg">
<circle cx="1731.5" cy="1731.5" r="1731.5" fill="url(#paint0_linear_3933_8633)"/>
<path d="M1781.96 2789.41C1741.27 2785.57 1724.38 2783.28 1699.14 2778.2C1670.13 2772.35 1661.24 2770.16 1632.28 2761.73C1615.42 2756.82 1582.67 2745.12 1567.39 2738.54C1561.63 2736.06 1552.21 2732.02 1546.46 2729.55C1313.68 2629.75 1048.47 2377.12 907.502 2120.91C904.018 2114.57 898.066 2103.74 894.276 2096.83C874.789 2061.32 830.183 1964.61 832.308 1962.49C832.549 1962.25 857.683 1963.02 888.162 1964.21C1038.63 1970.07 1219.9 1953.19 1441.46 1912.7C1494.94 1902.93 1501.41 1902.08 1501.51 1904.77C1501.54 1905.63 1505.35 1910.58 1509.98 1915.76C1534.78 1943.55 1563.37 1989.98 1598.25 2059.15C1607.54 2077.58 1619.12 2101.6 1623.98 2112.53C1670.2 2216.57 1676.58 2230.48 1694.49 2266.39C1707.79 2293.05 1729.6 2332.06 1734.24 2337.48C1735.26 2338.68 1739.3 2344.61 1743.21 2350.65C1835.19 2492.87 1992.56 2529.45 2208.85 2458.88C2217.41 2456.09 2224.7 2454.09 2225.05 2454.45C2226.18 2455.58 2199.85 2514.93 2191.46 2530.15C2187.02 2538.21 2181.49 2548.57 2179.17 2553.18C2176.85 2557.78 2174.34 2562.02 2173.59 2562.6C2172.84 2563.18 2168.24 2570.24 2163.36 2578.3C2158.49 2586.36 2153.34 2594.82 2151.92 2597.1C2117.92 2651.77 2046.92 2716.5 1988.15 2746.41C1929.12 2776.45 1840.49 2794.93 1781.96 2789.41ZM2648.59 2589.34C2648.59 2586.72 2647.66 2573.75 2646.53 2560.51C2645.39 2547.27 2643.46 2524.66 2642.24 2510.27C2627.85 2341.77 2596.8 2197.29 2551.69 2088.98C2546.53 2076.61 2542.91 2066.47 2543.65 2066.45C2544.38 2066.43 2544 2065.72 2542.8 2064.88C2541.61 2064.03 2535.15 2052.51 2528.45 2039.27C2422.54 1829.95 2235.14 1756.55 1919.07 1800.6C1833.97 1812.46 1767.63 1824.1 1620.77 1852.94C1349.25 1906.26 1240.34 1922.95 1084.88 1935.03C1037.85 1938.69 851.787 1938.68 809.606 1935.02C726.335 1927.79 642.985 1914.5 569.92 1896.79L543.753 1890.44L528.177 1856.53C369.126 1510.21 350.364 1230.59 472.247 1022.96C584.245 832.172 823.288 707.3 1117.33 685.983C1158.77 682.978 1209.63 679.147 1230.33 677.47C1453.41 659.402 1791.2 713.165 2057.23 809.081C2081.89 817.973 2137.08 839.35 2146.78 843.771C2151.83 846.069 2161.06 849.951 2167.3 852.398C2176.06 855.833 2245.2 890.673 2263.42 900.831C2265.15 901.794 2277.87 907.853 2291.68 914.297C2316.3 925.777 2323.8 929.238 2355.53 943.746C2400.93 964.508 2500.29 1026.59 2562.77 1073.25C2588.6 1092.54 2611.61 1111.44 2685.23 1173.83C2747.26 1226.4 2851.11 1348.17 2898.75 1424.17C2914.56 1449.41 2941.66 1494.56 2941.66 1495.68C2941.66 1496.36 2944.61 1501.9 2948.21 1508C3030.38 1646.95 3080.4 1846.88 3068.56 1989.03C3065.04 2031.33 3057.68 2081.45 3053.2 2093.7C3052.57 2095.42 3051.78 2098.89 3051.44 2101.4C3050.2 2110.65 3039.96 2145.58 3032.52 2165.92C3028.31 2177.43 3023.54 2190.5 3021.91 2194.95C3006.88 2236.22 2958.97 2318.17 2925.81 2359.36C2885.32 2409.64 2821.56 2473.52 2782.39 2503.05C2779.42 2505.3 2766.23 2515.24 2753.09 2525.15C2729.08 2543.26 2668.1 2584.13 2655.4 2590.63C2648.7 2594.06 2648.6 2594.04 2648.59 2589.34Z" fill="white"/>
<defs>
<linearGradient id="paint0_linear_3933_8633" x1="1731.5" y1="0" x2="1731.5" y2="3463" gradientUnits="userSpaceOnUse">
<stop stop-color="#FF9C07"/>
<stop offset="1" stop-color="#E1490D"/>
</linearGradient>
</defs>
</svg>
